<?xml version="1.0" encoding="UTF-8"?>
<svg width="15px" height="14px" viewBox="0 0 15 14" version="1.1" xmlns="http://www.w3.org/2000/svg" xmlns:xlink="http://www.w3.org/1999/xlink">
    <!-- Generator: Sketch 49 (51002) - http://www.bohemiancoding.com/sketch -->
    <title>Shape@2x</title>
    <desc>Created with Sketch.</desc>
    <defs></defs>
    <g id="Symbols" stroke="none" stroke-width="1" fill="none" fill-rule="evenodd" fill-opacity="0.8">
        <g id="主站导航" transform="translate(-362.000000, -8.000000)" fill="#FFFFFF" fill-rule="nonzero">
            <g id="Group-10">
                <g transform="translate(362.000000, 7.000000)">
                    <g id="Group-9">
                        <g id="Group-3">
                            <path d="M14.3044887,6.44840352 L8.2924572,1.36927348 C7.72235076,0.876908839 6.86719112,0.876908839 6.29708468,1.36927348 L0.20731143,6.44840352 C0.0777417862,6.55205923 0,6.68162888 0,6.86302638 C0,7.14807959 0.233225359,7.38130495 0.518278575,7.38130495 C0.647848218,7.38130495 0.777417862,7.32947709 0.855159648,7.25173531 L1.03655715,7.09625174 L1.03655715,12.8750578 C1.03655715,14.0411846 1.91763073,15 3.03192966,15 L11.4798704,15 C12.5682554,15 13.4752429,14.0411846 13.4752429,12.8750578 L13.4752429,7.09625174 L13.6307265,7.22582138 C13.7343822,7.30356317 13.8380379,7.35539102 13.9935215,7.35539102 C14.2785747,7.35539102 14.5118001,7.12216566 14.5118001,6.83711245 C14.5118001,6.7075428 14.4340583,6.55205923 14.3044887,6.44840352 Z M6.2193429,13.9634429 L6.2193429,10.3354928 C6.2193429,10.0504396 6.45256826,9.81721425 6.73762147,9.81721425 L7.77417862,9.81721425 C8.05923184,9.81721425 8.2924572,10.0504396 8.2924572,10.3354928 L8.2924572,13.9634429 L6.2193429,13.9634429 Z M12.4386858,12.8750578 C12.4386858,13.4710782 11.998149,13.9634429 11.4539565,13.9634429 L9.32901435,13.9634429 L9.32901435,10.3354928 C9.32901435,9.48033318 8.62933827,8.7806571 7.77417862,8.7806571 L6.73762147,8.7806571 C5.88246182,8.7806571 5.18278575,9.48033318 5.18278575,10.3354928 L5.18278575,13.9634429 L3.05784359,13.9634429 C2.51365109,13.9634429 2.0731143,13.4710782 2.0731143,12.8750578 L2.0731143,6.24109209 L6.9449329,2.17260528 C7.1263304,2.0171217 7.41138362,2.0171217 7.61869505,2.17260528 L12.4386858,6.21517816 L12.4386858,12.8750578 Z" id="Shape"></path>
                        </g>
                    </g>
                </g>
            </g>
        </g>
    </g>
</svg>